<svg width="517" height="142" viewBox="0 0 517 142" fill="none" xmlns="http://www.w3.org/2000/svg">
<g clip-path="url(#clip0_409_682)">
<path d="M182.75 3.5H40.765L4.56201 138.614H146.546L182.75 3.5ZM349.028 3.5H207.043L170.84 138.614H312.824L349.028 3.5ZM512.64 3.5H370.655L334.452 138.614H476.436L512.64 3.5Z" fill="white" stroke="black" stroke-width="7" stroke-miterlimit="10"/>
<path d="M120.188 22.314H68.688L39.895 118.767H99.71C127.601 118.348 142.383 103.631 143.152 88.477C143.922 73.322 132.891 69.876 129.312 68.737C153.431 65.354 151.493 46.112 151.493 41.862C151.493 35.381 147.968 22.314 120.188 22.314ZM110.077 85.767C109.402 91.256 107.638 94.517 99.71 95.018C96.376 94.99 74.465 95.018 74.465 95.018L79.583 77.111H102.648C108.649 77.708 110.752 80.277 110.077 85.767ZM119.188 52.971C118.496 57.185 114.248 59.414 109.239 60.316H85.059L90.18 44.993H112.484C114.651 44.993 120.157 47.059 119.188 52.971ZM284.41 22.314H232.909L204.116 118.767H263.931C291.822 118.348 306.604 103.631 307.374 88.477C308.144 73.322 297.113 69.876 293.533 68.737C317.653 65.354 315.716 46.112 315.716 41.862C315.715 35.381 312.189 22.314 284.41 22.314ZM274.297 85.767C273.623 91.256 271.859 94.517 263.93 95.018C260.596 94.99 238.685 95.018 238.685 95.018L243.803 77.111H266.868C272.87 77.708 274.974 80.277 274.297 85.767ZM283.409 52.971C282.717 57.185 278.469 59.414 273.46 60.316H249.281L254.402 44.993H276.705C278.874 44.993 284.379 47.059 283.409 52.971Z" fill="black"/>
<path d="M427.949 100.127C421.562 106.514 410.472 103.192 407.341 99.948C400.758 93.138 409.694 63.613 411.954 59.586C415.231 53.748 419.258 40.733 431.046 40.733C442.616 40.733 444.153 46.536 444.153 60.723C446.454 60.723 468.356 59.774 473.711 59.951C476.709 43.191 470.016 23.161 441.652 21.567C418.022 20.239 405.28 21.2 388.188 43.294C378.345 56.018 373.513 76.005 373.185 93.984C372.889 110.115 384.431 123.61 412.531 123.61C423.84 123.61 443.671 120.72 451.525 112.595C458.033 105.86 461.56 104.647 467.708 81.502C460.602 81.324 438.784 81.485 438.784 81.485C438.784 81.485 437.13 90.946 427.949 100.127Z" fill="black"/>
</g>
<defs>
<clipPath id="clip0_409_682">
<rect width="517" height="142" fill="white"/>
</clipPath>
</defs>
</svg>
